<svg width="26" height="17" viewBox="0 0 26 17" fill="none" xmlns="http://www.w3.org/2000/svg">
<path opacity="0.2" fill-rule="evenodd" clip-rule="evenodd" d="M17.2128 2.10156H2.22527C1.52464 2.10156 0.702148 2.90898 0.702148 3.625V15.0508C0.702148 15.7668 1.52464 16.5742 2.22527 16.5742H21.2643C21.965 16.5742 22.7875 15.7668 22.7875 15.0508V9.31504C22.1459 9.89227 21.3536 10.2753 20.5028 10.4195V10.4805C20.5028 10.9832 20.2286 11.2422 19.7412 11.2422H2.98684C2.49944 11.2422 2.22527 10.9832 2.22527 10.4805V9.71875C2.22527 9.21602 2.49944 8.95703 2.98684 8.95703H16.337C15.8974 8.46974 15.5683 7.89319 15.3722 7.26684C15.176 6.6405 15.1175 5.97916 15.2007 5.32811C15.2839 4.67706 15.5068 4.05167 15.854 3.49478C16.2013 2.93788 16.6648 2.46263 17.2128 2.10156Z" fill="#565656"/>
<path opacity="0.3" fill-rule="evenodd" clip-rule="evenodd" d="M15.4308 4.38672H0.702148V6.67188H15.2328C15.1048 5.90565 15.1729 5.1195 15.4308 4.38672Z" fill="#565656"/>
<path fill-rule="evenodd" clip-rule="evenodd" d="M19.7411 11.2422C18.3272 11.2422 16.9713 10.6804 15.9716 9.68047C14.9718 8.68052 14.4102 7.3243 14.4102 5.91016C14.4102 4.49601 14.9718 3.13979 15.9716 2.13984C16.9713 1.13989 18.3272 0.578125 19.7411 0.578125C21.1549 0.578125 22.5109 1.13989 23.5106 2.13984C24.5104 3.13979 25.072 4.49601 25.072 5.91016C25.072 7.3243 24.5104 8.68052 23.5106 9.68047C22.5109 10.6804 21.1549 11.2422 19.7411 11.2422ZM17.624 3.70117H17.0223L15.5525 4.44766V5.20937L16.7177 4.6V8.11914H17.6316V3.70117H17.624ZM19.3755 4.31055C19.8096 4.31055 20.1143 4.5543 20.1143 4.90469C20.1143 5.28555 19.7563 5.55215 19.2385 5.55215H19.01V6.19961H19.2842C19.8325 6.19961 20.2056 6.47383 20.2056 6.86992C20.2056 7.25078 19.8401 7.50977 19.3222 7.50977C18.9415 7.50977 18.5607 7.38789 18.1647 7.15176V7.91348C18.5911 8.09629 19.0176 8.19531 19.4365 8.19531C20.4341 8.19531 21.1195 7.68496 21.1195 6.94609C21.1195 6.42812 20.7997 6.00918 20.2666 5.8416C20.7235 5.68926 21.0205 5.28555 21.0205 4.82852C21.0205 4.1125 20.3884 3.625 19.4745 3.625C19.0626 3.62957 18.6558 3.71768 18.2789 3.88398V4.63047C18.6444 4.4248 19.0176 4.31055 19.3755 4.31055ZM22.6655 5.97109C23.2214 5.97109 23.6098 6.29863 23.6098 6.72519C23.6098 7.17461 23.2214 7.48691 22.6655 7.48691C22.3304 7.48691 21.9801 7.38027 21.6222 7.15938V7.94395C21.9953 8.11152 22.3761 8.19531 22.7493 8.19531C22.9473 8.19531 23.13 8.16484 23.3052 8.11914C23.7012 7.47168 23.9297 6.7252 23.9297 5.92539L23.9145 5.60547C23.6313 5.43783 23.3067 5.35336 22.9777 5.36172C22.8407 5.36172 22.696 5.36934 22.5436 5.39219V4.40195H23.6403C23.5452 4.15814 23.4279 3.92356 23.29 3.70117H21.7516V6.10059C22.0562 6.02441 22.3609 5.97109 22.6655 5.97109Z" fill="#565656"/>
<circle cx="19.7407" cy="5.91016" r="4.52979" fill="#565656"/>
</svg>
