<svg width="21" height="20" viewBox="0 0 21 20" fill="none" xmlns="http://www.w3.org/2000/svg">
<path d="M10.6875 0.25C8.75914 0.25 6.87407 0.821828 5.27069 1.89317C3.66732 2.96451 2.41763 4.48726 1.67968 6.26884C0.941725 8.05042 0.748642 10.0108 1.12485 11.9021C1.50105 13.7934 2.42965 15.5307 3.79321 16.8943C5.15678 18.2579 6.89406 19.1865 8.78537 19.5627C10.6767 19.9389 12.6371 19.7458 14.4187 19.0078C16.2002 18.2699 17.723 17.0202 18.7943 15.4168C19.8657 13.8134 20.4375 11.9284 20.4375 10C20.4348 7.41498 19.4067 4.93661 17.5788 3.10872C15.7509 1.28084 13.2725 0.25273 10.6875 0.25ZM10.6875 18.25C9.05581 18.25 7.46076 17.7661 6.10405 16.8596C4.74734 15.9531 3.68992 14.6646 3.0655 13.1571C2.44108 11.6496 2.2777 9.99085 2.59603 8.3905C2.91435 6.79016 3.70009 5.32015 4.85387 4.16637C6.00766 3.01259 7.47767 2.22685 9.07801 1.90852C10.6784 1.59019 12.3372 1.75357 13.8446 2.37799C15.3521 3.00242 16.6406 4.05984 17.5471 5.41655C18.4536 6.77325 18.9375 8.3683 18.9375 10C18.935 12.1873 18.065 14.2843 16.5184 15.8309C14.9718 17.3775 12.8748 18.2475 10.6875 18.25ZM16.6875 10C16.6875 10.1989 16.6085 10.3897 16.4678 10.5303C16.3272 10.671 16.1364 10.75 15.9375 10.75H10.6875C10.4886 10.75 10.2978 10.671 10.1572 10.5303C10.0165 10.3897 9.9375 10.1989 9.9375 10V4.75C9.9375 4.55109 10.0165 4.36032 10.1572 4.21967C10.2978 4.07902 10.4886 4 10.6875 4C10.8864 4 11.0772 4.07902 11.2178 4.21967C11.3585 4.36032 11.4375 4.55109 11.4375 4.75V9.25H15.9375C16.1364 9.25 16.3272 9.32902 16.4678 9.46967C16.6085 9.61032 16.6875 9.80109 16.6875 10Z" fill="#606A7B"/>
</svg>
