<svg width="14" height="13" viewBox="0 0 14 13" fill="none" xmlns="http://www.w3.org/2000/svg">
<path d="M8.86634 3.66668L9.66634 4.51668L5.13301 9.33334L4.33301 8.48334L8.86634 3.66668ZM1.66634 0.833344H12.333C13.073 0.833344 13.6663 1.46376 13.6663 2.25001V5.08334C13.3127 5.08334 12.9736 5.2326 12.7235 5.49828C12.4735 5.76395 12.333 6.12429 12.333 6.50001C12.333 6.87573 12.4735 7.23607 12.7235 7.50174C12.9736 7.76742 13.3127 7.91668 13.6663 7.91668V10.75C13.6663 11.5363 13.073 12.1667 12.333 12.1667H1.66634C1.31272 12.1667 0.97358 12.0174 0.723532 11.7517C0.473484 11.4861 0.333008 11.1257 0.333008 10.75V7.91668C1.07301 7.91668 1.66634 7.28626 1.66634 6.50001C1.66634 6.12429 1.52587 5.76395 1.27582 5.49828C1.02577 5.2326 0.68663 5.08334 0.333008 5.08334V2.25001C0.333008 1.87429 0.473484 1.51395 0.723532 1.24828C0.97358 0.982599 1.31272 0.833344 1.66634 0.833344ZM1.66634 2.25001V4.04918C2.07146 4.29738 2.40791 4.65456 2.64184 5.0848C2.87578 5.51503 2.99894 6.00314 2.99894 6.50001C2.99894 6.99688 2.87578 7.48499 2.64184 7.91522C2.40791 8.34546 2.07146 8.70264 1.66634 8.95084V10.75H12.333V8.95084C11.9279 8.70264 11.5914 8.34546 11.3575 7.91522C11.1236 7.48499 11.0004 6.99688 11.0004 6.50001C11.0004 6.00314 11.1236 5.51503 11.3575 5.0848C11.5914 4.65456 11.9279 4.29738 12.333 4.04918V2.25001H1.66634ZM5.33301 3.66668C5.88634 3.66668 6.33301 4.14126 6.33301 4.72918C6.33301 5.31709 5.88634 5.79168 5.33301 5.79168C4.77967 5.79168 4.33301 5.31709 4.33301 4.72918C4.33301 4.14126 4.77967 3.66668 5.33301 3.66668ZM8.66634 7.20834C9.21967 7.20834 9.66634 7.68293 9.66634 8.27084C9.66634 8.85876 9.21967 9.33334 8.66634 9.33334C8.11301 9.33334 7.66634 8.85876 7.66634 8.27084C7.66634 7.68293 8.11301 7.20834 8.66634 7.20834Z" fill="white"/>
</svg>
