<svg width="25" height="16" viewBox="0 0 25 16" fill="none" xmlns="http://www.w3.org/2000/svg">
<g clip-path="url(#clip0_97_18323)">
<g clip-path="url(#clip1_97_18323)">
<g clip-path="url(#clip2_97_18323)">
<path d="M22.0723 0H2.07227C0.967696 0 0.0722656 0.89543 0.0722656 2V14C0.0722656 15.1046 0.967696 16 2.07227 16H22.0723C23.1768 16 24.0723 15.1046 24.0723 14V2C24.0723 0.89543 23.1768 0 22.0723 0Z" fill="#252525"/>
<path d="M9.07227 13C11.8337 13 14.0723 10.7614 14.0723 8C14.0723 5.23858 11.8337 3 9.07227 3C6.31084 3 4.07227 5.23858 4.07227 8C4.07227 10.7614 6.31084 13 9.07227 13Z" fill="#EB001B"/>
<path d="M15.0723 13C17.8337 13 20.0723 10.7614 20.0723 8C20.0723 5.23858 17.8337 3 15.0723 3C12.3108 3 10.0723 5.23858 10.0723 8C10.0723 10.7614 12.3108 13 15.0723 13Z" fill="#F79E1B"/>
<path fill-rule="evenodd" clip-rule="evenodd" d="M12.0723 3.99963C13.2867 4.91184 14.0723 6.36418 14.0723 8C14.0723 9.63582 13.2867 11.0882 12.0723 12.0004C10.8578 11.0882 10.0723 9.63582 10.0723 8C10.0723 6.36418 10.8578 4.91184 12.0723 3.99963Z" fill="#FF5F00"/>
</g>
</g>
</g>
<defs>
<clipPath id="clip0_97_18323">
<rect width="24" height="16" fill="white" transform="translate(0.0722656)"/>
</clipPath>
<clipPath id="clip1_97_18323">
<rect width="24" height="16" fill="white" transform="translate(0.0722656)"/>
</clipPath>
<clipPath id="clip2_97_18323">
<rect width="24" height="16" fill="white" transform="translate(0.0722656)"/>
</clipPath>
</defs>
</svg>
