<svg width="16" height="16" viewBox="0 0 16 16" fill="none" xmlns="http://www.w3.org/2000/svg">
<path d="M15.7422 1.80625V5.5225C15.7422 5.7689 15.6443 6.00521 15.4701 6.17945C15.2958 6.35368 15.0595 6.45156 14.8131 6.45156H11.0969C10.8505 6.45156 10.6142 6.35368 10.4399 6.17945C10.2657 6.00521 10.1678 5.7689 10.1678 5.5225C10.1678 5.2761 10.2657 5.03979 10.4399 4.86555C10.6142 4.69132 10.8505 4.59344 11.0969 4.59344H12.5679L11.964 3.98955C10.8707 2.89079 9.38591 2.27094 7.83587 2.26614H7.80257C6.26637 2.26277 4.79061 2.86437 3.69457 3.94077C3.51839 4.11305 3.28099 4.20828 3.0346 4.20552C2.7882 4.20276 2.553 4.10224 2.38072 3.92606C2.20844 3.74988 2.11321 3.51249 2.11597 3.26609C2.11873 3.0197 2.21925 2.78449 2.39543 2.61221C3.83874 1.19497 5.7821 0.403107 7.8049 0.408012H7.84516C9.8858 0.413576 11.8407 1.22924 13.2802 2.6757L13.8841 3.27727V1.80625C13.8841 1.55985 13.9819 1.32354 14.1562 1.1493C14.3304 0.975072 14.5667 0.877189 14.8131 0.877189C15.0595 0.877189 15.2958 0.975072 15.4701 1.1493C15.6443 1.32354 15.7422 1.55985 15.7422 1.80625ZM12.3054 12.0592C11.2088 13.1362 9.73211 13.7378 8.1951 13.7339H8.16181C6.61177 13.7291 5.12701 13.1092 4.03368 12.0105L3.43211 11.4066H4.90312C5.14953 11.4066 5.38584 11.3087 5.56007 11.1344C5.7343 10.9602 5.83219 10.7239 5.83219 10.4775C5.83219 10.2311 5.7343 9.99479 5.56007 9.82055C5.38584 9.64632 5.14953 9.54844 4.90312 9.54844H1.18687C0.940472 9.54844 0.704162 9.64632 0.529929 9.82055C0.355696 9.99479 0.257812 10.2311 0.257812 10.4775V14.1937C0.257812 14.4402 0.355696 14.6765 0.529929 14.8507C0.704162 15.0249 0.940472 15.1228 1.18687 15.1228C1.43328 15.1228 1.66959 15.0249 1.84382 14.8507C2.01805 14.6765 2.11594 14.4402 2.11594 14.1937V12.7227L2.71983 13.3266C4.15966 14.7722 6.11453 15.587 8.15484 15.592H8.1982C10.221 15.5969 12.1644 14.805 13.6077 13.3878C13.6949 13.3025 13.7645 13.2008 13.8124 13.0886C13.8604 12.9764 13.8858 12.8559 13.8871 12.7339C13.8885 12.6119 13.8658 12.4908 13.8204 12.3776C13.775 12.2644 13.7077 12.1612 13.6224 12.0739C13.5371 11.9867 13.4354 11.9171 13.3232 11.8692C13.211 11.8212 13.0905 11.7958 12.9685 11.7945C12.8465 11.7931 12.7254 11.8158 12.6122 11.8612C12.4989 11.9066 12.3958 11.9739 12.3085 12.0592H12.3054Z" fill="#606A7B"/>
</svg>
