<svg width="36" height="36" viewBox="0 0 36 36" fill="none" xmlns="http://www.w3.org/2000/svg">
<path d="M4.875 18H18V20.1875H4.875V18ZM2.6875 12.5312H13.625V14.7188H2.6875V12.5312Z" fill="#606A7B"/>
<path d="M33.2237 18.6628L29.9424 11.0066C29.8581 10.8099 29.7179 10.6422 29.5393 10.5244C29.3606 10.4066 29.1513 10.3438 28.9373 10.3438H25.656V8.15625C25.656 7.86617 25.5408 7.58797 25.3357 7.38285C25.1306 7.17773 24.8524 7.0625 24.5623 7.0625H7.06229V9.25H23.4685V22.9831C22.9705 23.2729 22.5345 23.6582 22.1858 24.117C21.837 24.5757 21.5823 25.0988 21.4363 25.6562H14.5632C14.297 24.6252 13.6639 23.7267 12.7826 23.129C11.9013 22.5314 10.8322 22.2757 9.77588 22.4099C8.71952 22.544 7.74836 23.0589 7.04443 23.8579C6.34051 24.6569 5.95215 25.6852 5.95215 26.75C5.95215 27.8148 6.34051 28.8431 7.04443 29.6421C7.74836 30.4411 8.71952 30.956 9.77588 31.0901C10.8322 31.2243 11.9013 30.9686 12.7826 30.371C13.6639 29.7733 14.297 28.8748 14.5632 27.8438H21.4363C21.6743 28.7824 22.2184 29.615 22.9827 30.2097C23.7469 30.8044 24.6877 31.1273 25.656 31.1273C26.6244 31.1273 27.5652 30.8044 28.3294 30.2097C29.0937 29.615 29.6378 28.7824 29.8757 27.8438H32.2185C32.5086 27.8438 32.7868 27.7285 32.9919 27.5234C33.1971 27.3183 33.3123 27.0401 33.3123 26.75V19.0938C33.3122 18.9456 33.2821 18.799 33.2237 18.6628ZM10.3435 28.9375C9.91089 28.9375 9.48796 28.8092 9.12823 28.5688C8.76849 28.3285 8.48812 27.9868 8.32255 27.5871C8.15698 27.1874 8.11366 26.7476 8.19807 26.3232C8.28247 25.8989 8.49081 25.5091 8.79674 25.2032C9.10267 24.8973 9.49244 24.6889 9.91678 24.6045C10.3411 24.5201 10.7809 24.5634 11.1807 24.729C11.5804 24.8946 11.922 25.175 12.1624 25.5347C12.4027 25.8944 12.531 26.3174 12.531 26.75C12.531 27.3302 12.3006 27.8866 11.8903 28.2968C11.4801 28.707 10.9237 28.9375 10.3435 28.9375ZM25.656 12.5312H28.2154L30.5604 18H25.656V12.5312ZM25.656 28.9375C25.2234 28.9375 24.8005 28.8092 24.4407 28.5688C24.081 28.3285 23.8006 27.9868 23.635 27.5871C23.4695 27.1874 23.4262 26.7476 23.5106 26.3232C23.595 25.8989 23.8033 25.5091 24.1092 25.2032C24.4152 24.8973 24.8049 24.6889 25.2293 24.6045C25.6536 24.5201 26.0934 24.5634 26.4932 24.729C26.8929 24.8946 27.2345 25.175 27.4749 25.5347C27.7152 25.8944 27.8435 26.3174 27.8435 26.75C27.8435 27.3302 27.6131 27.8866 27.2028 28.2968C26.7926 28.707 26.2362 28.9375 25.656 28.9375ZM31.1248 25.6562H29.8757C29.6348 24.7194 29.0898 23.8889 28.3261 23.2951C27.5625 22.7013 26.6234 22.3777 25.656 22.375V20.1875H31.1248V25.6562Z" fill="#606A7B"/>
</svg>
