<svg width="241" height="29" viewBox="0 0 241 29" fill="none" xmlns="http://www.w3.org/2000/svg">
<path fill-rule="evenodd" clip-rule="evenodd" d="M44.5723 9.04843H47.9653V22.055L58.1444 22.055V24.8826H48.8125C46.4707 24.8826 44.5723 22.9841 44.5723 20.6423V9.04843ZM67.0348 25.1994C65.5253 25.1994 64.1922 24.8661 63.0356 24.1996C61.8985 23.533 61.0065 22.6116 60.3596 21.4354C59.7126 20.2591 59.3892 18.9064 59.3892 17.3773C59.3892 15.8286 59.7028 14.4759 60.3302 13.3192C60.9771 12.143 61.8789 11.2314 63.0356 10.5845C64.1922 9.93753 65.5155 9.61406 67.0054 9.61406C68.4561 9.61406 69.7108 9.92773 70.7694 10.5551C71.8476 11.1628 72.671 12.0156 73.2395 13.1134C73.8276 14.2112 74.1217 15.5149 74.1217 17.0244C74.1217 17.2597 74.1119 17.4851 74.0923 17.7008C74.0923 17.8968 74.0727 18.1027 74.0335 18.3183H62.5213C62.6459 19.5809 63.033 20.6003 63.6825 21.3766C64.5059 22.3372 65.6429 22.8175 67.0936 22.8175C67.9758 22.8175 68.7404 22.641 69.3873 22.2882C70.0342 21.9157 70.5145 21.3766 70.8282 20.6708H73.71C73.2199 22.0823 72.3867 23.1899 71.2105 23.9937C70.0538 24.7975 68.6619 25.1994 67.0348 25.1994ZM63.6825 13.4369C63.1078 14.1096 62.7386 14.9728 62.5748 16.0264C62.5951 16.0252 62.6155 16.0246 62.636 16.0246H71.0794C70.9641 14.8576 70.6157 13.9362 70.0342 13.2604C69.3089 12.4175 68.2993 11.996 67.0054 11.996C65.6135 11.996 64.5059 12.4763 63.6825 13.4369ZM110.464 25.1994C108.954 25.1994 107.621 24.8661 106.464 24.1996C105.327 23.533 104.435 22.6116 103.788 21.4354C103.141 20.2591 102.818 18.9064 102.818 17.3773C102.818 15.8286 103.132 14.4759 103.759 13.3192C104.406 12.143 105.308 11.2314 106.464 10.5845C107.621 9.93753 108.944 9.61406 110.434 9.61406C111.885 9.61406 113.14 9.92773 114.198 10.5551C115.276 11.1628 116.1 12.0156 116.668 13.1134C117.256 14.2112 117.55 15.5149 117.55 17.0244C117.55 17.2597 117.541 17.4851 117.521 17.7008C117.521 17.8968 117.501 18.1027 117.462 18.3183H105.95C106.075 19.5809 106.462 20.6003 107.111 21.3766C107.935 22.3372 109.072 22.8175 110.522 22.8175C111.405 22.8175 112.169 22.641 112.816 22.2882C113.463 21.9157 113.943 21.3766 114.257 20.6708H117.139C116.649 22.0823 115.815 23.1899 114.639 23.9937C113.483 24.7975 112.091 25.1994 110.464 25.1994ZM107.111 13.4369C106.537 14.1093 106.168 14.9719 106.004 16.0246H114.508C114.393 14.8576 114.044 13.9362 113.463 13.2604C112.738 12.4175 111.728 11.996 110.434 11.996C109.042 11.996 107.935 12.4763 107.111 13.4369ZM135.053 14.95C135.053 12.3154 132.918 10.1797 130.283 10.1797H125.121C122.486 10.1797 120.35 12.3154 120.35 14.9499V24.8828H123.178V13.0072H132.226V24.8828H135.053V14.95ZM86.4208 10.1797H86.9863H89.8138H90.3793L92.9241 13.7109C93.2065 14.1048 93.2065 14.635 92.9241 15.0289L91.7001 16.7361L88.4 12.1515L84.4415 17.6726L88.4 23.1938L97.7309 10.1797H101.124L95.7516 17.6726L100.921 24.8828H97.5281L94.0551 20.0388L90.5821 24.8828H86.218L82.745 20.0388L79.272 24.8828H75.8789L86.4208 10.1797ZM81.614 13.7109C81.8965 14.1048 81.8965 14.635 81.614 15.0289L80.39 16.7361L75.6762 10.1797H79.0692L81.614 13.7109Z" fill="#606A7B"/>
<path d="M238.697 23.9286C239.335 23.9286 240.111 23.8602 241 23.7234V25.0233C239.928 25.1829 239.244 25.2969 238.332 25.2969C235.755 25.2969 234.797 24.3163 234.797 21.3288V15.0346H232.904V13.6891H234.797V10.7244H236.485V13.6891H240.818V15.0346H236.485V21.2604C236.485 23.4497 237.032 23.9286 238.697 23.9286Z" fill="#0DCBCE"/>
<path d="M220.438 20.4165V13.689H222.148V20.3253C222.148 22.8339 223.311 23.9285 225.934 23.9285C228.533 23.9285 229.696 22.8339 229.696 20.3253V13.689H231.384V20.4165C231.384 23.8145 229.696 25.2968 225.934 25.2968C222.125 25.2968 220.438 23.8145 220.438 20.4165Z" fill="#0DCBCE"/>
<path d="M207.072 19.2533C207.072 15.4676 209.011 13.4836 212.956 13.4836C216.878 13.4836 218.794 15.4676 218.794 19.2533V19.5269C218.794 23.3126 216.878 25.2966 212.956 25.2966C209.011 25.2966 207.072 23.3126 207.072 19.5269V19.2533ZM208.783 19.4585C208.783 22.4916 210.037 23.9283 212.956 23.9283C215.852 23.9283 217.107 22.4916 217.107 19.4585V19.3217C217.107 16.2886 215.852 14.8519 212.956 14.8519C210.037 14.8519 208.783 16.2886 208.783 19.3217V19.4585Z" fill="#0DCBCE"/>
<path d="M196.545 8.8999H198.255V18.2956H199.031L204.116 13.689H206.283L200.627 18.9342L206.762 25.0916H204.458L199.008 19.664H198.255V25.0916H196.545V8.8999Z" fill="#0DCBCE"/>
<path d="M185.137 19.2533C185.137 15.4676 187.075 13.4836 191.043 13.4836C192.32 13.4836 193.711 13.666 194.943 14.0081V15.3308C193.78 15.0343 192.252 14.8519 191.157 14.8519C188.193 14.8519 186.847 16.2658 186.847 19.3217V19.4585C186.847 22.5144 188.193 23.9283 191.157 23.9283C192.252 23.9283 193.78 23.7459 194.943 23.4494V24.7721C193.711 25.1142 192.32 25.2966 191.043 25.2966C187.075 25.2966 185.137 23.3126 185.137 19.5269V19.2533Z" fill="#0DCBCE"/>
<path d="M183.594 19.048C183.594 19.8462 183.457 20.1427 182.75 20.1427H174.176C174.381 22.7197 175.772 23.9283 178.645 23.9283C179.831 23.9283 181.496 23.7459 182.659 23.4494V24.7721C181.314 25.1142 179.808 25.2966 178.531 25.2966C174.404 25.2966 172.442 23.3354 172.442 19.5269V19.2533C172.442 15.4676 174.29 13.4836 178.098 13.4836C181.793 13.4836 183.594 15.4676 183.594 19.048ZM174.176 18.82H181.907C181.884 16.2202 180.721 14.8519 178.098 14.8519C175.521 14.8519 174.29 16.129 174.176 18.82Z" fill="#0DCBCE"/>
<path d="M159.801 8.8999H161.511V15.1257H161.648C162.378 14.0083 163.655 13.4837 165.662 13.4837C169.151 13.4837 170.747 14.9889 170.747 18.3641V25.0916H169.06V18.4553C169.06 15.9467 167.897 14.8521 165.297 14.8521C162.674 14.8521 161.511 15.9467 161.511 18.4553V25.0916H159.801V8.8999Z" fill="#0DCBCE"/>
<path d="M157.883 11.8874C156.378 11.3857 154.417 11.0892 152.638 11.0892C148.168 11.0892 146.161 13.1417 146.161 17.4291C146.161 21.7164 148.168 23.8145 152.478 23.8145C154.44 23.8145 156.218 23.404 157.883 22.9935V24.5671C156.355 24.932 154.531 25.2969 152.41 25.2969C147.028 25.2969 144.337 22.6058 144.337 17.4063C144.337 12.2523 147.028 9.60687 152.57 9.60687C154.485 9.60687 156.492 9.88053 157.883 10.3366V11.8874Z" fill="#0DCBCE"/>
<path d="M1.41768 9.72805C1.1663 7.96845 2.53168 6.39417 4.30914 6.39417H19.3879C21.1653 6.39417 22.5307 7.96845 22.2794 9.72805L19.9976 25.7006C19.792 27.1396 18.5596 28.2084 17.1061 28.2084H6.59094C5.13739 28.2084 3.90503 27.1396 3.69947 25.7006L1.41768 9.72805Z" fill="#00FBFF"/>
<path d="M32.8743 19.2649C33.1257 21.0245 31.7603 22.5988 29.9829 22.5988L14.9041 22.5988C13.1266 22.5988 11.7613 21.0245 12.0126 19.2649L14.2944 3.29229C14.5 1.85335 15.7324 0.784541 17.1859 0.784541L27.7011 0.784542C29.1546 0.784542 30.387 1.85336 30.5925 3.2923L32.8743 19.2649Z" fill="url(#paint0_linear_97_18712)"/>
<defs>
<linearGradient id="paint0_linear_97_18712" x1="22.4435" y1="0.784541" x2="22.4435" y2="22.5988" gradientUnits="userSpaceOnUse">
<stop stop-color="#00C8CB"/>
<stop offset="1" stop-color="#00C8CB" stop-opacity="0.2"/>
</linearGradient>
</defs>
</svg>
