<svg width="192" height="22" viewBox="0 0 192 22" fill="none" xmlns="http://www.w3.org/2000/svg">
<path fill-rule="evenodd" clip-rule="evenodd" d="M34.895 6.64264H37.6088V17.0453L45.75 17.0453V19.3068H39.1353C36.7934 19.3068 34.895 17.4084 34.895 15.0666V6.64264ZM52.8606 19.5601C51.6532 19.5601 50.587 19.2936 49.662 18.7605C48.7525 18.2274 48.0391 17.4904 47.5217 16.5497C47.0043 15.6089 46.7456 14.527 46.7456 13.304C46.7456 12.0654 46.9965 10.9835 47.4982 10.0584C48.0156 9.11763 48.7369 8.38854 49.662 7.87112C50.587 7.35369 51.6454 7.09498 52.837 7.09498C53.9973 7.09498 55.0008 7.34585 55.8475 7.8476C56.7099 8.33366 57.3684 9.01571 57.8231 9.89376C58.2935 10.7718 58.5287 11.8145 58.5287 13.0218C58.5287 13.21 58.5208 13.3903 58.5052 13.5627C58.5052 13.7195 58.4895 13.8842 58.4581 14.0567H49.2506C49.3503 15.0665 49.6599 15.8818 50.1794 16.5026C50.8379 17.2709 51.7473 17.6551 52.9076 17.6551C53.6132 17.6551 54.2247 17.514 54.7421 17.2317C55.2595 16.9338 55.6437 16.5026 55.8945 15.9382H58.1994C57.8074 17.0671 57.141 17.953 56.2003 18.5958C55.2752 19.2387 54.162 19.5601 52.8606 19.5601ZM50.1794 10.1525C49.7179 10.6928 49.422 11.3866 49.2918 12.2339C49.3436 12.2261 49.3963 12.2222 49.4494 12.2222H56.0955C56.0032 11.2888 55.7246 10.5518 55.2595 10.0114C54.6794 9.33714 53.8719 9.00003 52.837 9.00003C51.7238 9.00003 50.8379 9.38418 50.1794 10.1525ZM87.595 19.5601C86.3877 19.5601 85.3215 19.2936 84.3964 18.7605C83.487 18.2274 82.7736 17.4904 82.2561 16.5497C81.7387 15.6089 81.48 14.527 81.48 13.304C81.48 12.0654 81.7309 10.9835 82.2326 10.0584C82.75 9.11763 83.4713 8.38854 84.3964 7.87112C85.3215 7.35369 86.3798 7.09498 87.5715 7.09498C88.7318 7.09498 89.7352 7.34585 90.5819 7.8476C91.4443 8.33366 92.1028 9.01571 92.5575 9.89376C93.0279 10.7718 93.2631 11.8145 93.2631 13.0218C93.2631 13.21 93.2553 13.3903 93.2396 13.5627C93.2396 13.7195 93.2239 13.8842 93.1925 14.0567H83.9851C84.0848 15.0665 84.3944 15.8818 84.9138 16.5026C85.5723 17.2709 86.4818 17.6551 87.642 17.6551C88.3476 17.6551 88.9591 17.514 89.4765 17.2317C89.9939 16.9338 90.3781 16.5026 90.629 15.9382H92.9338C92.5419 17.0671 91.8755 17.953 90.9347 18.5958C90.0096 19.2387 88.8964 19.5601 87.595 19.5601ZM84.9138 10.1525C84.4544 10.6903 84.1592 11.3803 84.0281 12.2224L84.0498 12.2222H90.8299C90.7376 11.2888 90.459 10.5518 89.9939 10.0114C89.4138 9.33714 88.6063 9.00003 87.5715 9.00003C86.4582 9.00003 85.5723 9.38418 84.9138 10.1525ZM107.262 12.3176C107.262 9.68304 105.127 7.54732 102.492 7.54732H100.273C97.6384 7.54732 95.5027 9.68304 95.5027 12.3176V19.3069H97.7641V9.80878H105.001V19.3069H107.262V12.3176ZM68.3651 7.54732H68.8174H71.0788H71.5311L73.5664 10.3716C73.7923 10.6867 73.7923 11.1107 73.5664 11.4258L72.5875 12.7912L69.9481 9.1244L66.7821 13.5402L69.9481 17.956L77.4109 7.54732H80.1246L75.8279 13.5402L79.9625 19.3069H77.2488L74.471 15.4327L71.6932 19.3069H68.2029L65.4252 15.4327L62.6474 19.3069H59.9337L68.3651 7.54732ZM64.5206 10.3716C64.7465 10.6867 64.7465 11.1107 64.5206 11.4258L63.5416 12.7912L59.7715 7.54732H62.4853L64.5206 10.3716Z" fill="#606A7B"/>
<path d="M190.158 18.544C190.668 18.544 191.289 18.4893 192 18.3798V19.4195C191.143 19.5472 190.596 19.6384 189.866 19.6384C187.805 19.6384 187.039 18.8541 187.039 16.4647V11.4305H185.525V10.3544H187.039V7.98325H188.389V10.3544H191.854V11.4305H188.389V16.41C188.389 18.161 188.826 18.544 190.158 18.544Z" fill="#0DCBCE"/>
<path d="M175.554 15.7351V10.3544H176.922V15.6621C176.922 17.6685 177.852 18.544 179.949 18.544C182.029 18.544 182.959 17.6685 182.959 15.6621V10.3544H184.309V15.7351C184.309 18.4528 182.959 19.6384 179.949 19.6384C176.903 19.6384 175.554 18.4528 175.554 15.7351Z" fill="#0DCBCE"/>
<path d="M164.864 14.8048C164.864 11.777 166.415 10.1902 169.57 10.1902C172.707 10.1902 174.239 11.777 174.239 14.8048V15.0237C174.239 18.0515 172.707 19.6383 169.57 19.6383C166.415 19.6383 164.864 18.0515 164.864 15.0237V14.8048ZM166.232 14.969C166.232 17.3948 167.235 18.5439 169.57 18.5439C171.887 18.5439 172.89 17.3948 172.89 14.969V14.8595C172.89 12.4337 171.887 11.2846 169.57 11.2846C167.235 11.2846 166.232 12.4337 166.232 14.8595V14.969Z" fill="#0DCBCE"/>
<path d="M156.445 6.52411H157.813V14.0388H158.433L162.5 10.3544H164.233L159.71 14.5495L164.616 19.4742H162.774L158.415 15.1332H157.813V19.4742H156.445V6.52411Z" fill="#0DCBCE"/>
<path d="M147.32 14.8048C147.32 11.777 148.87 10.1902 152.044 10.1902C153.065 10.1902 154.178 10.3361 155.163 10.6097V11.6676C154.233 11.4305 153.011 11.2846 152.135 11.2846C149.764 11.2846 148.688 12.4154 148.688 14.8595V14.969C148.688 17.4131 149.764 18.5439 152.135 18.5439C153.011 18.5439 154.233 18.398 155.163 18.1609V19.2188C154.178 19.4924 153.065 19.6383 152.044 19.6383C148.87 19.6383 147.32 18.0515 147.32 15.0237V14.8048Z" fill="#0DCBCE"/>
<path d="M146.086 14.6407C146.086 15.279 145.977 15.5162 145.411 15.5162H138.553C138.717 17.5772 139.83 18.5439 142.128 18.5439C143.077 18.5439 144.408 18.398 145.338 18.1609V19.2188C144.262 19.4924 143.058 19.6383 142.037 19.6383C138.736 19.6383 137.167 18.0697 137.167 15.0237V14.8048C137.167 11.777 138.644 10.1902 141.69 10.1902C144.645 10.1902 146.086 11.777 146.086 14.6407ZM138.553 14.4583H144.736C144.718 12.3789 143.788 11.2846 141.69 11.2846C139.629 11.2846 138.644 12.306 138.553 14.4583Z" fill="#0DCBCE"/>
<path d="M127.057 6.52411H128.425V11.5035H128.535C129.118 10.6098 130.14 10.1903 131.745 10.1903C134.535 10.1903 135.812 11.3941 135.812 14.0936V19.4742H134.462V14.1665C134.462 12.1602 133.532 11.2847 131.453 11.2847C129.355 11.2847 128.425 12.1602 128.425 14.1665V19.4742H127.057V6.52411Z" fill="#0DCBCE"/>
<path d="M125.523 8.91347C124.319 8.5122 122.75 8.27508 121.328 8.27508C117.753 8.27508 116.148 9.91665 116.148 13.3457C116.148 16.7748 117.753 18.4528 121.2 18.4528C122.769 18.4528 124.191 18.1245 125.523 17.7962V19.0547C124.301 19.3465 122.842 19.6384 121.145 19.6384C116.841 19.6384 114.688 17.4861 114.688 13.3275C114.688 9.2053 116.841 7.08951 121.273 7.08951C122.805 7.08951 124.41 7.30838 125.523 7.67318V8.91347Z" fill="#0DCBCE"/>
<path d="M0.47627 7.85366C0.224898 6.09406 1.59027 4.51978 3.36773 4.51978H14.0793C15.8568 4.51978 17.2221 6.09406 16.9708 7.85366L15.3129 19.4591C15.1073 20.898 13.8749 21.9668 12.4214 21.9668H5.02565C3.5721 21.9668 2.33975 20.898 2.13418 19.4591L0.47627 7.85366Z" fill="#00FBFF"/>
<path d="M25.4451 14.1464C25.6965 15.906 24.3311 17.4803 22.5537 17.4803L11.8421 17.4803C10.0646 17.4803 8.69925 15.906 8.95062 14.1464L10.6085 2.54104C10.8141 1.1021 12.0465 0.0332801 13.5 0.0332802L20.8957 0.0332809C22.3493 0.033281 23.5816 1.1021 23.7872 2.54104L25.4451 14.1464Z" fill="url(#paint0_linear_46_24977)"/>
<defs>
<linearGradient id="paint0_linear_46_24977" x1="17.1979" y1="0.0332806" x2="17.1979" y2="17.4803" gradientUnits="userSpaceOnUse">
<stop stop-color="#00C8CB"/>
<stop offset="1" stop-color="#00C8CB" stop-opacity="0.2"/>
</linearGradient>
</defs>
</svg>
