<svg width="12" height="12" viewBox="0 0 12 12" fill="none" xmlns="http://www.w3.org/2000/svg">
<path d="M10.993 4.51583V0.823384C10.993 0.661863 10.9288 0.506959 10.8146 0.392746C10.7004 0.278534 10.5455 0.214371 10.384 0.214371H9.77497C8.56973 1.41961 6.30542 2.09439 4.90286 2.41473V8.97624C6.30542 9.29658 8.56973 9.97137 9.77497 11.1766H10.384C10.5455 11.1766 10.7004 11.1124 10.8146 10.9982C10.9288 10.884 10.993 10.7291 10.993 10.5676V6.87514C11.2547 6.80785 11.4866 6.65542 11.6522 6.44186C11.8178 6.2283 11.9077 5.96573 11.9077 5.69549C11.9077 5.42524 11.8178 5.16267 11.6522 4.94911C11.4866 4.73555 11.2547 4.58312 10.993 4.51583ZM1.24879 2.65042C0.925747 2.65042 0.615937 2.77875 0.387513 3.00717C0.159089 3.2356 0.0307617 3.54541 0.0307617 3.86845V7.52253C0.0307617 7.84557 0.159089 8.15538 0.387513 8.3838C0.615937 8.61222 0.925747 8.74055 1.24879 8.74055H1.8578L2.46681 11.7856H3.68484V2.65042H1.24879Z" fill="#4FD1C5"/>
</svg>
