<svg width="16" height="16" viewBox="0 0 16 16" fill="none" xmlns="http://www.w3.org/2000/svg">
<g clip-path="url(#clip0_97_19583)">
<path d="M8.41289 3.46754C8.36927 3.42581 8.31124 3.40253 8.25088 3.40253C8.19052 3.40253 8.13248 3.42581 8.08887 3.46754L2.69531 8.61998C2.67241 8.64189 2.65418 8.66822 2.64175 8.69738C2.62931 8.72653 2.62291 8.75791 2.62295 8.78961L2.62207 13.6253C2.62207 13.874 2.72084 14.1124 2.89666 14.2883C3.07247 14.4641 3.31093 14.5628 3.55957 14.5628H6.375C6.49932 14.5628 6.61855 14.5135 6.70645 14.4256C6.79436 14.3376 6.84375 14.2184 6.84375 14.0941V10.1097C6.84375 10.0476 6.86844 9.98795 6.9124 9.944C6.95635 9.90004 7.01596 9.87535 7.07812 9.87535H9.42187C9.48403 9.87535 9.54365 9.90004 9.5876 9.944C9.63155 9.98795 9.65625 10.0476 9.65625 10.1097V14.0941C9.65625 14.2184 9.70563 14.3376 9.79354 14.4256C9.88145 14.5135 10.0007 14.5628 10.125 14.5628H12.9393C13.1879 14.5628 13.4264 14.4641 13.6022 14.2883C13.778 14.1124 13.8768 13.874 13.8768 13.6253V8.78961C13.8768 8.75791 13.8704 8.72653 13.858 8.69738C13.8455 8.66822 13.8273 8.64189 13.8044 8.61998L8.41289 3.46754Z" fill="#4FD1C5"/>
<path d="M15.1326 7.65375L12.9412 5.55726V2.37592C12.9412 2.2516 12.8918 2.13237 12.8039 2.04446C12.716 1.95655 12.5968 1.90717 12.4725 1.90717H11.0662C10.9419 1.90717 10.8227 1.95655 10.7348 2.04446C10.6469 2.13237 10.5975 2.2516 10.5975 2.37592V3.31342L8.90059 1.69095C8.7418 1.53041 8.50567 1.43842 8.2505 1.43842C7.9962 1.43842 7.76065 1.53041 7.60186 1.69125L1.37042 7.65316C1.18819 7.82894 1.16534 8.1181 1.33116 8.30853C1.3728 8.3566 1.42379 8.39569 1.48102 8.42343C1.53824 8.45116 1.60052 8.46697 1.66405 8.46987C1.72758 8.47278 1.79103 8.46272 1.85055 8.44033C1.91007 8.41793 1.96441 8.38365 2.01026 8.33959L8.08936 2.5306C8.13298 2.48888 8.19102 2.46559 8.25138 2.46559C8.31174 2.46559 8.36977 2.48888 8.41339 2.5306L14.4931 8.33959C14.5826 8.42547 14.7026 8.47234 14.8266 8.46992C14.9507 8.46751 15.0687 8.416 15.1549 8.3267C15.3348 8.14037 15.3198 7.83275 15.1326 7.65375Z" fill="#4FD1C5"/>
</g>
<defs>
<clipPath id="clip0_97_19583">
<rect width="15" height="15" fill="white" transform="translate(0.75 0.500031)"/>
</clipPath>
</defs>
</svg>
