<svg width="16" height="16" viewBox="0 0 16 16" fill="none" xmlns="http://www.w3.org/2000/svg">
<g clip-path="url(#clip0_97_19620)">
<path d="M3.15625 15.0316H2.21875C2.03227 15.0316 1.85343 14.9575 1.72157 14.8257C1.5897 14.6938 1.51562 14.515 1.51562 14.3285V10.1097C1.51562 9.92325 1.5897 9.74441 1.72157 9.61255C1.85343 9.48069 2.03227 9.40661 2.21875 9.40661H3.15625C3.34273 9.40661 3.52157 9.48069 3.65343 9.61255C3.7853 9.74441 3.85937 9.92325 3.85937 10.1097V14.3285C3.85937 14.515 3.7853 14.6938 3.65343 14.8257C3.52157 14.9575 3.34273 15.0316 3.15625 15.0316V15.0316Z" fill="#4FD1C5"/>
<path d="M9.71875 15.0308H8.78125C8.59477 15.0308 8.41593 14.9567 8.28407 14.8249C8.1522 14.693 8.07812 14.5141 8.07812 14.3277V7.29642C8.07812 7.10994 8.1522 6.9311 8.28407 6.79924C8.41593 6.66737 8.59477 6.5933 8.78125 6.5933H9.71875C9.90523 6.5933 10.0841 6.66737 10.2159 6.79924C10.3478 6.9311 10.4219 7.10994 10.4219 7.29642V14.3277C10.4219 14.5141 10.3478 14.693 10.2159 14.8249C10.0841 14.9567 9.90523 15.0308 9.71875 15.0308V15.0308Z" fill="#4FD1C5"/>
<path d="M13 15.0312H12.0625C11.876 15.0312 11.6972 14.9571 11.5653 14.8252C11.4335 14.6934 11.3594 14.5145 11.3594 14.328V4.01554C11.3594 3.82905 11.4335 3.65021 11.5653 3.51835C11.6972 3.38649 11.876 3.31241 12.0625 3.31241H13C13.1865 3.31241 13.3653 3.38649 13.4972 3.51835C13.629 3.65021 13.7031 3.82905 13.7031 4.01554V14.328C13.7031 14.5145 13.629 14.6934 13.4972 14.8252C13.3653 14.9571 13.1865 15.0312 13 15.0312V15.0312Z" fill="#4FD1C5"/>
<path d="M6.4375 15.031H5.5C5.31352 15.031 5.13468 14.9569 5.00282 14.825C4.87095 14.6932 4.79688 14.5143 4.79688 14.3279V1.67161C4.79688 1.48513 4.87095 1.30629 5.00282 1.17443C5.13468 1.04257 5.31352 0.968487 5.5 0.968487H6.4375C6.62398 0.968487 6.80282 1.04257 6.93468 1.17443C7.06655 1.30629 7.14062 1.48513 7.14062 1.67161V14.3279C7.14062 14.5143 7.06655 14.6932 6.93468 14.825C6.80282 14.9569 6.62398 15.031 6.4375 15.031V15.031Z" fill="#4FD1C5"/>
</g>
<defs>
<clipPath id="clip0_97_19620">
<rect width="15" height="15" fill="white" transform="translate(0.109375 0.499988)"/>
</clipPath>
</defs>
</svg>
