<svg width="16" height="16" viewBox="0 0 16 16" fill="none" xmlns="http://www.w3.org/2000/svg">
<path d="M12.8203 7.06268H8.71875C8.34579 7.06268 7.9881 6.91452 7.72438 6.6508C7.46066 6.38708 7.3125 6.02939 7.3125 5.65643V1.55487C7.3125 1.52379 7.30015 1.49398 7.27818 1.47201C7.2562 1.45003 7.22639 1.43768 7.19531 1.43768H4.5C4.00272 1.43768 3.52581 1.63523 3.17417 1.98686C2.82254 2.33849 2.625 2.8154 2.625 3.31268V12.6877C2.625 13.185 2.82254 13.6619 3.17417 14.0135C3.52581 14.3651 4.00272 14.5627 4.5 14.5627H11.0625C11.5598 14.5627 12.0367 14.3651 12.3883 14.0135C12.74 13.6619 12.9375 13.185 12.9375 12.6877V7.17987C12.9375 7.14879 12.9252 7.11898 12.9032 7.097C12.8812 7.07503 12.8514 7.06268 12.8203 7.06268Z" fill="#4FD1C5"/>
<path d="M12.5631 6.02603L8.3499 1.81285C8.34171 1.8047 8.33129 1.79916 8.31996 1.79692C8.30862 1.79468 8.29688 1.79584 8.2862 1.80025C8.27553 1.80467 8.26639 1.81214 8.25995 1.82173C8.25351 1.83132 8.25005 1.8426 8.25 1.85415V5.65718C8.25 5.7815 8.29939 5.90073 8.38729 5.98864C8.4752 6.07655 8.59443 6.12593 8.71875 6.12593H12.5218C12.5333 6.12588 12.5446 6.12242 12.5542 6.11598C12.5638 6.10954 12.5713 6.1004 12.5757 6.08973C12.5801 6.07905 12.5813 6.06731 12.579 6.05598C12.5768 6.04464 12.5712 6.03422 12.5631 6.02603V6.02603Z" fill="#4FD1C5"/>
</svg>
