<svg width="14" height="14" viewBox="0 0 14 14" fill="none" xmlns="http://www.w3.org/2000/svg">
<path d="M13.226 3.05095C13.1923 2.9853 13.1435 2.92856 13.0837 2.88533C13.0238 2.8421 12.9546 2.81362 12.8817 2.8022C12.8088 2.79078 12.7342 2.79674 12.664 2.8196C12.5938 2.84246 12.53 2.88158 12.4778 2.93376L10.6778 4.73493C10.5894 4.82201 10.4704 4.87083 10.3463 4.87083C10.2223 4.87083 10.1032 4.82201 10.0148 4.73493L9.23669 3.95564C9.19315 3.91211 9.15861 3.86043 9.13505 3.80355C9.11149 3.74667 9.09936 3.68571 9.09936 3.62414C9.09936 3.56258 9.11149 3.50161 9.13505 3.44474C9.15861 3.38786 9.19315 3.33618 9.23669 3.29265L11.0291 1.49997C11.0828 1.44625 11.1227 1.38027 11.1452 1.30771C11.1678 1.23516 11.1724 1.15821 11.1586 1.08348C11.1448 1.00876 11.1131 0.938508 11.0661 0.878776C11.0192 0.819044 10.9584 0.771623 10.889 0.740599C9.53522 0.135325 7.84538 0.451145 6.77986 1.50876C5.87458 2.40759 5.60476 3.81208 6.04011 5.36218C6.06358 5.44484 6.06372 5.53239 6.0405 5.61512C6.01728 5.69785 5.97162 5.77255 5.90857 5.83093L1.03123 10.2855C0.841218 10.4561 0.687957 10.6636 0.580792 10.8954C0.473627 11.1272 0.414804 11.3784 0.407912 11.6336C0.401019 11.8889 0.446201 12.1429 0.540703 12.3801C0.635204 12.6174 0.777042 12.8328 0.957566 13.0134C1.13809 13.194 1.35352 13.336 1.5907 13.4306C1.82788 13.5252 2.08186 13.5705 2.33712 13.5637C2.59239 13.5569 2.8436 13.4982 3.07542 13.3912C3.30725 13.2841 3.51484 13.1309 3.68552 12.941L8.18786 8.0528C8.2454 7.99056 8.31884 7.9452 8.40025 7.92161C8.48166 7.89802 8.56797 7.89709 8.64987 7.91892C9.09119 8.03984 9.54641 8.10257 10.004 8.10554C10.9825 8.10554 11.8412 7.78884 12.4605 7.17859C13.6075 6.0486 13.7824 4.132 13.226 3.05095ZM2.38445 12.6202C2.1915 12.6412 1.99677 12.6019 1.82713 12.5076C1.6575 12.4133 1.52132 12.2686 1.43739 12.0936C1.35347 11.9186 1.32593 11.7218 1.35858 11.5305C1.39124 11.3392 1.48247 11.1627 1.61969 11.0254C1.75691 10.8882 1.93336 10.7969 2.12468 10.7641C2.31599 10.7314 2.51275 10.7589 2.68779 10.8428C2.86284 10.9266 3.00753 11.0627 3.10192 11.2323C3.1963 11.4019 3.23571 11.5967 3.21472 11.7896C3.19162 12.0019 3.09673 12.2 2.94575 12.351C2.79477 12.5021 2.59675 12.597 2.38445 12.6202Z" fill="#4FD1C5"/>
</svg>
