<svg width="18" height="18" viewBox="0 0 18 18" fill="none" xmlns="http://www.w3.org/2000/svg">
<path d="M15.567 4.00875C15.4965 3.92761 15.4094 3.86253 15.3116 3.81789C15.2138 3.77326 15.1075 3.75011 15 3.75H4.63575L4.4895 2.877C4.46039 2.70187 4.37009 2.54275 4.23468 2.42794C4.09927 2.31314 3.92753 2.25008 3.75 2.25H2.0625C1.86359 2.25 1.67282 2.32902 1.53217 2.46967C1.39152 2.61032 1.3125 2.80109 1.3125 3C1.3125 3.19891 1.39152 3.38968 1.53217 3.53033C1.67282 3.67098 1.86359 3.75 2.0625 3.75H3.11475L4.50975 12.123L4.5435 12.216L4.584 12.3292L4.674 12.4635L4.74525 12.5475L4.89 12.645L4.974 12.6937C5.06122 12.7302 5.15472 12.7493 5.24925 12.75H13.5C13.6989 12.75 13.8897 12.671 14.0303 12.5303C14.171 12.3897 14.25 12.1989 14.25 12C14.25 11.8011 14.171 11.6103 14.0303 11.4697C13.8897 11.329 13.6989 11.25 13.5 11.25H5.88525L5.76075 10.5H14.25C14.4305 10.5 14.6049 10.435 14.7413 10.3168C14.8777 10.1986 14.9669 10.0351 14.9925 9.8565L15.7425 4.6065C15.7577 4.50011 15.7499 4.3917 15.7196 4.28858C15.6893 4.18547 15.6373 4.09004 15.567 4.00875ZM14.1353 5.25L13.9215 6.75H11.25V5.25H14.1353ZM10.5 5.25V6.75H8.25V5.25H10.5ZM10.5 7.5V9H8.25V7.5H10.5ZM7.5 5.25V6.75H5.25L5.139 6.7725L4.8855 5.25H7.5ZM5.2605 7.5H7.5V9H5.51025L5.2605 7.5ZM11.25 9V7.5H13.8135L13.5997 9H11.25Z" fill="#4FD1C5"/>
<path d="M6.375 15.75C6.99632 15.75 7.5 15.2463 7.5 14.625C7.5 14.0037 6.99632 13.5 6.375 13.5C5.75368 13.5 5.25 14.0037 5.25 14.625C5.25 15.2463 5.75368 15.75 6.375 15.75Z" fill="#4FD1C5"/>
<path d="M13.125 15.75C13.7463 15.75 14.25 15.2463 14.25 14.625C14.25 14.0037 13.7463 13.5 13.125 13.5C12.5037 13.5 12 14.0037 12 14.625C12 15.2463 12.5037 15.75 13.125 15.75Z" fill="#4FD1C5"/>
</svg>
