<svg width="16" height="16" viewBox="0 0 16 16" fill="none" xmlns="http://www.w3.org/2000/svg">
<path d="M11.7186 2.95466L10.3853 2.25466C9.21458 1.64066 8.62925 1.33333 7.99992 1.33333C7.37058 1.33333 6.78525 1.63999 5.61458 2.25466L5.40058 2.36733L11.3493 5.76666L14.0266 4.42666C13.5959 3.93866 12.9013 3.57399 11.7186 2.95333M14.4986 5.30933L11.8333 6.64266V8.66666C11.8333 8.79927 11.7806 8.92645 11.6868 9.02022C11.593 9.11398 11.4659 9.16666 11.3333 9.16666C11.2006 9.16666 11.0735 9.11398 10.9797 9.02022C10.8859 8.92645 10.8333 8.79927 10.8333 8.66666V7.14266L8.49992 8.30933V14.6027C8.97858 14.4833 9.52325 14.198 10.3853 13.7453L11.7186 13.0453C13.1526 12.2927 13.8699 11.9167 14.2686 11.24C14.6666 10.564 14.6666 9.722 14.6666 8.04V7.962C14.6666 6.7 14.6666 5.91066 14.4986 5.30933ZM7.49992 14.6027V8.30933L1.50125 5.30933C1.33325 5.91066 1.33325 6.7 1.33325 7.96066V8.03866C1.33325 9.722 1.33325 10.564 1.73125 11.24C2.12992 11.9167 2.84725 12.2933 4.28125 13.046L5.61458 13.7453C6.47658 14.198 7.02125 14.4833 7.49992 14.6027ZM1.97325 4.42733L7.99992 7.44066L10.2739 6.304L4.34992 2.91866L4.28125 2.95466C3.09925 3.57466 2.40392 3.93933 1.97325 4.428" fill="#4FD1C5"/>
</svg>
